<svg width="24" height="24" viewBox="0 0 24 24" fill="none" xmlns="http://www.w3.org/2000/svg">
<mask id="mask0_0_19" style="mask-type:alpha" maskUnits="userSpaceOnUse" x="0" y="0" width="24" height="24">
<rect width="24" height="24" fill="#D9D9D9"/>
</mask>
<g mask="url(#mask0_0_19)">
<path d="M12 9.63672C12.1167 9.63672 12.229 9.65339 12.337 9.68672C12.4457 9.72005 12.5417 9.78672 12.625 9.88672L17.15 14.3867C17.2834 14.5367 17.35 14.7117 17.35 14.9117C17.35 15.1117 17.275 15.2867 17.125 15.4367C16.975 15.5701 16.8 15.6367 16.6 15.6367C16.4 15.6367 16.225 15.5701 16.075 15.4367L12 11.3617L7.90004 15.4367C7.7667 15.5867 7.60004 15.6577 7.40004 15.6497C7.20004 15.6411 7.02504 15.5701 6.87504 15.4367C6.72504 15.2867 6.65004 15.1077 6.65004 14.8997C6.65004 14.6911 6.72504 14.5201 6.87504 14.3867L11.375 9.88672C11.4584 9.78672 11.554 9.72005 11.662 9.68672C11.7707 9.65339 11.8834 9.63672 12 9.63672Z" fill="#525252"/>
</g>
</svg>
