<svg width="12" height="7" viewBox="0 0 12 7" fill="none" xmlns="http://www.w3.org/2000/svg">
<path d="M5.99961 0.636783C6.11628 0.636783 6.22861 0.653449 6.33661 0.686782C6.44528 0.720116 6.54128 0.786783 6.62461 0.886783L11.1496 5.38678C11.2829 5.53678 11.3496 5.71178 11.3496 5.91178C11.3496 6.11178 11.2746 6.28678 11.1246 6.43678C10.9746 6.57012 10.7996 6.63678 10.5996 6.63678C10.3996 6.63678 10.2246 6.57012 10.0746 6.43678L5.99961 2.36178L1.89961 6.43678C1.76628 6.58678 1.59961 6.65778 1.39961 6.64978C1.19961 6.64112 1.02461 6.57012 0.874609 6.43678C0.724609 6.28678 0.649609 6.10778 0.649609 5.89978C0.649609 5.69112 0.724609 5.52012 0.874609 5.38678L5.37461 0.886783C5.45794 0.786783 5.55361 0.720116 5.66161 0.686782C5.77028 0.653449 5.88294 0.636783 5.99961 0.636783Z" fill="#525252"/>
</svg>
